<svg id="Layer_1" data-name="Layer 1" xmlns="http://www.w3.org/2000/svg" viewBox="0 0 400 400"><defs><style>.cls-1,.cls-4{fill:#657c94;}.cls-2,.cls-3{fill:#37bec9;}.cls-3,.cls-4{font-size:123.14px;font-family:BoucherieSans, Boucherie Sans;}</style></defs><circle class="cls-1" cx="201.5" cy="118.4" r="10.4"/><path class="cls-1" d="M173.2,230.1a6.1,6.1,0,0,1-4.2-1.7L79.6,139a6,6,0,0,1,0-8.4L169,41.2a6,6,0,0,1,8.4,0l89.4,89.4a6,6,0,0,1,0,8.4l-89.4,89.4A6.3,6.3,0,0,1,173.2,230.1Zm-81-95.3,81,80.9,80.9-80.9-80.9-81Z"/><path class="cls-1" d="M83.8,185.4a6.6,6.6,0,0,1-2.3-.4,5.9,5.9,0,0,1-3.6-5.5V90.1a5.9,5.9,0,0,1,3.6-5.5A6,6,0,0,1,88,85.9l22.4,22.3a6,6,0,0,1-8.5,8.5L89.8,104.5v60.6l12.1-12.2a6.1,6.1,0,0,1,8.5,0,6,6,0,0,1,0,8.4L88,183.7A5.9,5.9,0,0,1,83.8,185.4Z"/><path class="cls-2" d="M312.1,140.9a5.8,5.8,0,0,1-4.2-1.7L186.8,18.1a6,6,0,0,1,0-8.4,6.1,6.1,0,0,1,8.5,0L316.4,130.8a6,6,0,0,1,0,8.4A5.9,5.9,0,0,1,312.1,140.9Z"/><path class="cls-2" d="M191.1,261.6a5.9,5.9,0,0,1-4.3-1.7,6,6,0,0,1,0-8.4L307.9,130.4a6.1,6.1,0,0,1,8.5,0,6,6,0,0,1,0,8.4L195.3,259.9A5.8,5.8,0,0,1,191.1,261.6Z"/><text class="cls-3" transform="translate(11.1 372.9)">Fin</text><text class="cls-4" transform="translate(131.7 372.9)">Assist</text></svg>