<svg id="Layer_1" data-name="Layer 1" xmlns="http://www.w3.org/2000/svg" viewBox="0 0 200 200"><defs><style>.cls-1{fill:#657c94;}.cls-2{fill:#37bec9;}</style></defs><circle class="cls-1" cx="102.7" cy="87.2" r="8.2"/><path class="cls-1" d="M80.6,174.6a4.3,4.3,0,0,1-3.3-1.4L7.4,103.3a4.5,4.5,0,0,1,0-6.6L77.3,26.8a4.5,4.5,0,0,1,6.6,0l69.9,69.9a4.5,4.5,0,0,1,0,6.6L83.9,173.2A4.3,4.3,0,0,1,80.6,174.6ZM17.2,100l63.4,63.3L143.9,100,80.6,36.6Z"/><path class="cls-1" d="M10.6,139.6a4.7,4.7,0,0,1-1.7-.3A4.6,4.6,0,0,1,6,135V65a4.6,4.6,0,0,1,2.9-4.3,4.6,4.6,0,0,1,5,1L31.4,79.2a4.5,4.5,0,0,1,0,6.6,4.7,4.7,0,0,1-6.6,0l-9.5-9.5v47.4l9.5-9.5a4.7,4.7,0,0,1,6.6,0,4.5,4.5,0,0,1,0,6.6L13.9,138.3A4.3,4.3,0,0,1,10.6,139.6Z"/><path class="cls-2" d="M189.4,104.8a4.3,4.3,0,0,1-3.3-1.4L91.3,8.7a4.7,4.7,0,0,1,0-6.6,4.7,4.7,0,0,1,6.6,0l94.7,94.8a4.4,4.4,0,0,1,0,6.5A4.3,4.3,0,0,1,189.4,104.8Z"/><path class="cls-2" d="M94.6,199.3a4.7,4.7,0,0,1-3.3-8l94.8-94.7a4.6,4.6,0,0,1,6.5,6.5L97.9,197.9A4.7,4.7,0,0,1,94.6,199.3Z"/></svg>